<svg width="47" height="43" viewBox="0 0 47 43" fill="none" xmlns="http://www.w3.org/2000/svg" class="integrationsIcon"><g clip-path="url(#clip0_1915_76290)"><path d="M23.1547 25.6649C25.4342 25.6649 27.282 23.817 27.282 21.5375C27.282 19.258 25.4342 17.4102 23.1547 17.4102C20.8752 17.4102 19.0273 19.258 19.0273 21.5375C19.0273 23.817 20.8752 25.6649 23.1547 25.6649Z" fill="#5028C0"></path><path d="M23.1526 29.9936C35.3839 29.9936 45.2994 26.2077 45.2994 21.5376C45.2994 16.8674 35.3839 13.0815 23.1526 13.0815C10.9213 13.0815 1.00586 16.8674 1.00586 21.5376C1.00586 26.2077 10.9213 29.9936 23.1526 29.9936Z" stroke="#5028C0" stroke-width="1.91559"></path><path d="M15.8294 25.7656C21.9451 36.3582 30.1815 43.0523 34.226 40.7172C38.2704 38.3822 36.5914 27.9022 30.4757 17.3095C24.3601 6.71691 16.1237 0.0228313 12.0792 2.3579C8.03474 4.69297 9.71378 15.173 15.8294 25.7656Z" stroke="#5028C0" stroke-width="1.91559"></path><path d="M15.8292 17.3096C9.71349 27.9022 8.03445 38.3822 12.0789 40.7172C16.1234 43.0523 24.3598 36.3582 30.4754 25.7656C36.5911 15.173 38.2701 4.69299 34.2257 2.35792C30.1812 0.0228472 21.9448 6.71693 15.8292 17.3096Z" stroke="#5028C0" stroke-width="1.91559"></path></g><defs><clipPath id="clip0_1915_76290"><rect width="46.3069" height="41.2" fill="white" transform="translate(0 0.9375)"></rect></clipPath></defs></svg>