<svg width="38" height="47" viewBox="0 0 38 47" fill="none" xmlns="http://www.w3.org/2000/svg" class="integrationsIcon"><path d="M23.3946 0.787448L37.592 0.771973L13.7727 24.32L7.56498 30.4259L0.501953 23.4311L23.3946 0.787448ZM23.2625 21.8131C23.4468 21.5723 23.7858 21.691 24.043 21.66L37.5798 21.6635L25.2425 33.8545L18.143 26.8752L23.2625 21.8131Z" fill="#5028C0"></path><path d="M11.0645 33.8663L18.1414 26.875L25.2409 33.8543L25.2705 33.8853L18.1431 40.8697L11.0645 33.8663Z" fill="#5028C0"></path><path d="M18.1445 40.8697L25.2719 33.8853L37.5848 46.0763C32.9468 46.0866 28.3106 46.0728 23.6743 46.0831C23.4101 46.1416 23.2467 45.9026 23.078 45.7547L18.1445 40.8697Z" fill="#5028C0"></path></svg>