<svg class="integrationsIcon" width="56" height="56" viewBox="0 0 56 56" fill="none" xmlns="http://www.w3.org/2000/svg"><path d="M14.86 47.9241L4.4185 29.8386C3.8605 28.8726 3.8605 27.6816 4.4185 26.7156L14.86 8.63084C15.4172 7.66559 16.4462 7.07084 17.56 7.06934H38.4528C39.5628 7.07459 40.5865 7.66934 41.1415 8.63084L51.5815 26.7156C52.1395 27.6816 52.1395 28.8726 51.5815 29.8386L41.14 47.9241C40.5828 48.8894 39.5537 49.4841 38.44 49.4856H17.5525C16.4402 49.4819 15.415 48.8871 14.8578 47.9241H14.86Z" fill="#5028C0"></path><path d="M37.9507 36.6993L34.7504 33.4916C34.7156 33.4558 34.6757 33.4255 34.6319 33.4016C35.9932 31.6482 36.6347 29.4417 36.4258 27.2318C36.2169 25.0219 35.1734 22.9747 33.5077 21.5074C31.842 20.0401 29.6796 19.2631 27.4609 19.3346C25.2423 19.4062 23.1344 20.3209 21.5667 21.8924C19.999 23.464 19.0895 25.5741 19.0234 27.7929C18.9573 30.0117 19.7397 32.1722 21.211 33.8343C22.6824 35.4964 24.7321 36.5349 26.9426 36.7384C29.153 36.9418 31.3579 36.2949 33.1079 34.9293C33.1308 34.9706 33.1593 35.0085 33.1927 35.0418L36.4004 38.2496C36.4946 38.3437 36.6224 38.3965 36.7555 38.3965C36.8887 38.3965 37.0164 38.3437 37.1107 38.2496L37.9507 37.4096C38.0448 37.3153 38.0977 37.1876 38.0977 37.0544C38.0977 36.9213 38.0448 36.7935 37.9507 36.6993ZM27.7304 34.6248C26.4324 34.625 25.1635 34.2402 24.0842 33.5191C23.0049 32.7981 22.1636 31.7732 21.6669 30.574C21.1701 29.3748 21.04 28.0553 21.2932 26.7822C21.5464 25.5091 22.1715 24.3397 23.0893 23.4219C24.0071 22.5041 25.1765 21.8791 26.4496 21.6259C27.7226 21.3727 29.0422 21.5027 30.2414 21.9995C31.4405 22.4963 32.4655 23.3375 33.1865 24.4168C33.9075 25.4962 34.2923 26.7651 34.2922 28.0631C34.292 29.8033 33.6006 31.4722 32.3701 32.7027C31.1395 33.9332 29.4706 34.6246 27.7304 34.6248ZM23.5357 27.7128V30.4248C23.9534 31.1621 24.5579 31.7771 25.2892 32.2061V27.6963L23.5357 27.7128ZM26.8169 25.4643V32.7933C27.3965 32.9001 27.9908 32.9001 28.5704 32.7933V25.4643H26.8169ZM31.8899 30.4188V28.8123H30.1379V32.1873C30.8681 31.7594 31.4729 31.1469 31.8914 30.4113L31.8899 30.4188Z" fill="#E8DDFF"></path></svg>