<svg width="43" height="38" viewBox="0 0 43 38" fill="none" xmlns="http://www.w3.org/2000/svg" class="integrationsIcon"><path d="M39.3008 26.6223C39.2995 26.6206 39.2982 26.6194 39.2968 26.6178C39.3589 26.409 39.4229 26.2015 39.4771 25.9875C41.8043 16.8166 36.1246 5.97403 26.5134 0.265137C30.7253 5.91277 32.5875 12.7534 30.933 18.7356C30.7854 19.2692 30.608 19.7813 30.4119 20.279C30.1991 20.1407 29.931 19.9837 29.5709 19.7873C29.5709 19.7873 20.0103 13.9485 9.64822 3.6209C9.37632 3.34981 15.1737 11.817 21.7531 18.6926C18.6533 16.9719 10.0146 10.7548 4.54575 5.80379C5.21766 6.91214 6.01682 7.9794 6.89529 9.00688C11.4623 14.7358 17.4182 21.8043 24.5536 27.2321C19.5402 30.2668 12.4561 30.5028 5.40279 27.2353C3.65823 26.4266 2.01817 25.4508 0.5 24.3422C3.48565 29.0659 8.08397 33.1415 13.6806 35.5207C20.3547 38.3578 26.9917 38.1654 31.9349 35.5673L31.931 35.5729C31.9536 35.5588 31.9823 35.5433 32.0057 35.5291C32.2087 35.4211 32.4102 35.3112 32.6072 35.1951C34.9822 33.9757 39.6733 32.7386 42.1913 37.5846C42.8079 38.7705 44.1183 32.4856 39.3008 26.6223Z" fill="#5028C0"></path></svg>