<svg width="30" height="41" viewBox="0 0 30 41" fill="none" xmlns="http://www.w3.org/2000/svg" class="integrationsIcon"><path d="M0 24.5493V16.0244C0 15.5909 0.352524 15.2441 0.782314 15.2441H10.4067C10.8413 15.2441 11.189 15.5957 11.189 16.0244V24.5493C11.189 24.9828 10.8365 25.3295 10.4067 25.3295H0.782314C0.347695 25.3295 0 24.978 0 24.5493Z" fill="#5028C0"></path><path d="M11.1939 30.7675V39.5043C11.1939 39.933 10.8462 40.2846 10.4164 40.2846L0.791973 40.3713C0.357354 40.3761 0 40.0245 0 39.591V30.7627C0 30.3292 0.352524 29.9824 0.782314 29.9824H10.4067C10.8413 29.9872 11.1939 30.3388 11.1939 30.7675Z" fill="#5028C0"></path><path d="M29.67 1.0698C29.67 0.636327 29.3175 0.289551 28.8877 0.289551H27.2216H16.1533H11.1939H0.782314C0.347695 0.289551 0 0.641143 0 1.0698V9.80182C0 10.2353 0.352524 10.5821 0.782314 10.5821H16.1533H28.8829C29.3175 10.5821 29.6652 10.2305 29.6652 9.80182V1.0698H29.67Z" fill="#5028C0"></path><path d="M29.669 16.0244C29.669 15.5909 29.3165 15.2441 28.8867 15.2441H27.2206H16.9347C16.5 15.2441 16.1523 15.5957 16.1523 16.0244V24.5493C16.1523 24.9828 16.5049 25.3295 16.9347 25.3295H27.2158H28.8819C29.3165 25.3295 29.6642 24.978 29.6642 24.5493V16.0244H29.669Z" fill="#5028C0"></path></svg>