<svg class="integrationsIcon" width="56" height="56" viewBox="0 0 56 56" fill="none" xmlns="http://www.w3.org/2000/svg"><path fill-rule="evenodd" clip-rule="evenodd" d="M49.0944 25.004L43.8278 28.0032L49.0944 30.9928C50.4247 31.7489 50.8778 33.4193 50.1098 34.7291C49.3418 36.0325 47.6451 36.4785 46.3213 35.7256L36.887 30.3632C36.2573 30.0026 35.8202 29.4395 35.6275 28.8036C35.5342 28.5125 35.4925 28.212 35.5021 27.9146C35.5086 27.6994 35.5407 27.4844 35.5986 27.2692C35.7881 26.6016 36.2283 26.0038 36.8839 25.6273L46.3149 20.2713C47.6388 19.5183 49.3386 19.9644 50.1033 21.2741C50.8778 22.5807 50.4247 24.2479 49.0944 25.004ZM44.1073 39.5346L34.6796 34.1817C34.1718 33.8908 33.6128 33.7799 33.0729 33.8242C31.6334 33.9256 30.5055 35.1087 30.5055 36.5482V47.2666C30.5055 48.7789 31.7426 50 33.2785 50C34.8145 50 36.0548 48.7757 36.0548 47.2666V41.2715L41.3342 44.2707C42.6614 45.0299 44.358 44.5807 45.1227 43.2741C45.8875 41.9675 45.4376 40.2907 44.1073 39.5346ZM33.2271 29.0504L29.307 32.9037C29.1945 33.0175 28.9792 33.1092 28.8154 33.1092H28.5325H27.9542H27.6649C27.5075 33.1092 27.2857 33.0175 27.1733 32.9037L23.2531 29.0504C23.1407 28.9427 23.0507 28.7245 23.0507 28.5695V28.2848V27.7152V27.4338C23.0507 27.2755 23.1407 27.0573 23.2531 26.9465L27.1701 23.0932C27.2826 22.9793 27.5043 22.8908 27.6617 22.8908H27.9509H28.5294H28.8154C28.9759 22.8908 29.1945 22.9793 29.307 23.0932L33.2271 26.9465C33.3396 27.0573 33.4296 27.2755 33.4296 27.4338V27.7152V28.2848V28.5695C33.4296 28.7213 33.3396 28.9395 33.2271 29.0504ZM30.0943 27.981C30.0943 27.8261 29.9978 27.6077 29.8853 27.4939L28.751 26.3802C28.6385 26.2694 28.4201 26.1777 28.2594 26.1777H28.2144C28.057 26.1777 27.8353 26.2694 27.726 26.3802L26.5918 27.4939C26.4793 27.6077 26.3925 27.8261 26.3925 27.981V28.0253C26.3925 28.1803 26.4793 28.3954 26.5918 28.5061L27.726 29.6229C27.8384 29.7337 28.057 29.8255 28.2144 29.8255H28.2594C28.4169 29.8255 28.6385 29.7337 28.751 29.6229L29.8853 28.5061C29.9978 28.3954 30.0943 28.1803 30.0943 28.0253V27.981ZM12.3729 16.459L21.8039 21.8183C22.3116 22.1061 22.874 22.2201 23.4138 22.1758C24.8502 22.0713 25.9812 20.8881 25.9812 19.4487V8.73023C25.9812 7.22433 24.7377 6 23.2081 6C21.6722 6 20.4319 7.22433 20.4319 8.73023V14.7285L15.1492 11.723C13.8253 10.9669 12.1287 11.4162 11.3608 12.7227C10.5928 14.0357 11.0459 15.7029 12.3729 16.459ZM33.0729 22.1758C33.6128 22.2201 34.1751 22.1061 34.6796 21.8183L44.1073 16.459C45.4345 15.7029 45.8875 14.0325 45.1227 12.7227C44.358 11.4162 42.6614 10.9701 41.3342 11.723L36.0548 14.7285V8.73023C36.0548 7.22433 34.8145 6 33.2785 6C31.7426 6 30.5055 7.22433 30.5055 8.73023V19.4487C30.5022 20.8881 31.6334 22.0713 33.0729 22.1758ZM23.4138 33.8242C22.8708 33.7799 22.3085 33.8908 21.8039 34.1817L12.3729 39.5346C11.0459 40.2907 10.5928 41.9675 11.3575 43.2741C12.1255 44.5776 13.8221 45.0268 15.146 44.2707L20.4286 41.2715V47.2666C20.4286 48.7789 21.6689 50 23.2049 50C24.7344 50 25.978 48.7757 25.978 47.2666V36.5482C25.9812 35.1087 24.8502 33.9256 23.4138 33.8242ZM20.856 28.8036C20.9492 28.5125 20.9878 28.212 20.9813 27.9146C20.9717 27.6994 20.9427 27.4844 20.8817 27.2692C20.6953 26.6016 20.2519 26.0038 19.59 25.6273L10.1654 20.2713C8.83511 19.5183 7.1385 19.9644 6.37695 21.2741C5.60576 22.5807 6.06205 24.2479 7.39235 25.004L12.6589 28.0032L7.38913 30.9928C6.05883 31.7489 5.60576 33.4193 6.37373 34.7291C7.1385 36.0325 8.8319 36.4785 10.1622 35.7256L19.5868 30.3632C20.2261 30.0057 20.6569 29.4395 20.856 28.8036Z" fill="#5028C0"></path></svg>