<svg class="integrationsIcon" width="56" height="56" viewBox="0 0 56 56" fill="none" xmlns="http://www.w3.org/2000/svg"><g clip-path="url(#clip0_3708_100279)"><path d="M26 40.1714L43.64 44.3363V11.5713L26 15.7362V40.1714Z" fill="#5028C0"></path><path d="M43.6394 11.5713L46.9994 13.2373V42.6703L43.6394 44.3363V11.5713ZM25.9994 40.1714L8.35938 44.3363V11.5713L25.9994 15.7362V40.1714Z" fill="#9C83DF"></path><path d="M8.36 11.5713L5 13.2373V42.6703L8.36 44.3363V11.5713Z" fill="#5028C0"></path><path d="M30.4803 51L37.2003 47.6681V8.33195L30.4803 5L28.4258 26.8434L30.4803 51Z" fill="#9C83DF"></path><path d="M21.5208 51L14.8008 47.6681V8.33195L21.5208 5L23.5753 26.8434L21.5208 51Z" fill="#5028C0"></path><path d="M21.5195 5H30.5723V50.9072H21.5195V5Z" fill="#7E5ED3"></path></g><defs><clipPath id="clip0_3708_100279"><rect width="42" height="46" fill="white" transform="translate(5 5)"></rect></clipPath></defs></svg>