<svg width="50" height="48" viewBox="0 0 50 48" fill="none" xmlns="http://www.w3.org/2000/svg" class="integrationsIcon"><path d="M31.1525 32.5581H2.40096C1.08043 32.5581 0 31.4777 0 30.1572C0 28.8367 1.08043 27.7562 2.40096 27.7562H31.1525C32.473 27.7562 33.5534 28.8367 33.5534 30.1572C33.5534 31.4777 32.473 32.5581 31.1525 32.5581Z" fill="#5028C0"></path><path d="M25.0298 47.264C22.6889 47.264 20.348 46.9039 18.1271 46.2436C16.8666 45.8235 16.1463 44.5029 16.5664 43.2424C16.9866 41.9819 18.3071 41.2616 19.5676 41.6818C21.3083 42.222 23.1691 42.5221 25.0298 42.5221C33.1931 42.5221 40.2759 37.3 42.6169 29.4969C42.977 28.2364 44.3576 27.5161 45.6181 27.8763C46.8786 28.2364 47.5989 29.617 47.2387 30.8775C44.1775 40.6614 35.2939 47.264 25.0298 47.264Z" fill="#5028C0"></path><path d="M47.5988 20.3733H18.8472C17.5267 20.3733 16.4463 19.2929 16.4463 17.9724C16.4463 16.6518 17.5267 15.5714 18.8472 15.5714H47.5988C48.9193 15.5714 49.9997 16.6518 49.9997 17.9724C49.9997 19.2929 48.9193 20.3733 47.5988 20.3733Z" fill="#5028C0"></path><path d="M5.10161 20.3733C4.86152 20.3733 4.62142 20.3133 4.38133 20.2532C3.12082 19.8931 2.40053 18.5125 2.76068 17.252C5.8219 7.46812 14.7055 0.865479 25.0296 0.865479C27.3705 0.865479 29.7115 1.22562 31.9323 1.88589C33.1929 2.30606 33.9131 3.62658 33.493 4.88709C33.0728 6.14759 31.7523 6.86788 30.4918 6.44771C28.7511 5.9075 26.8903 5.60738 25.0296 5.60738C16.8663 5.60738 9.78349 10.8295 7.44255 18.6326C7.08241 19.713 6.12202 20.3733 5.10161 20.3733Z" fill="#5028C0"></path><path d="M39.2564 11.2497C40.5824 11.2497 41.6574 10.1747 41.6574 8.84871C41.6574 7.5227 40.5824 6.44775 39.2564 6.44775C37.9304 6.44775 36.8555 7.5227 36.8555 8.84871C36.8555 10.1747 37.9304 11.2497 39.2564 11.2497Z" fill="#5028C0"></path><path d="M10.7447 41.7419C12.0707 41.7419 13.1457 40.6669 13.1457 39.3409C13.1457 38.0149 12.0707 36.9399 10.7447 36.9399C9.4187 36.9399 8.34375 38.0149 8.34375 39.3409C8.34375 40.6669 9.4187 41.7419 10.7447 41.7419Z" fill="#5028C0"></path></svg>