<svg width="16" height="16" viewBox="0 0 16 16" fill="none" xmlns="http://www.w3.org/2000/svg"><path d="M10.6667 1C10.6667 0.447716 11.1144 0 11.6667 0H15C15.5523 0 16 0.447715 16 1V5.33333H10.6667V1Z" fill="#7856FF"></path><path d="M0 11.6667C0 11.1144 0.447715 10.6667 1 10.6667H5.33333V16H1C0.447716 16 0 15.5523 0 15V11.6667Z" fill="#7856FF"></path><path d="M5.33334 6.33334C5.33334 5.78106 5.78106 5.33334 6.33334 5.33334H10.6667V10.6667H5.33334V6.33334Z" fill="#7856FF"></path><rect x="5.33334" y="10.6667" width="5.33333" height="5.33333" fill="#1B0B3B"></rect><rect x="10.6667" y="5.33334" width="5.33333" height="5.33333" fill="#1B0B3B"></rect><path d="M10.6667 10.6667H16V15C16 15.5523 15.5523 16 15 16H10.6667V10.6667Z" fill="#7856FF"></path></svg>