<svg xmlns="http://www.w3.org/2000/svg" width="16" height="16" viewBox="0 0 20 20" fill="none"><path fill-rule="evenodd" clip-rule="evenodd" d="M15.2016 11.8461L14.6665 11.022C14.4601 10.7042 14.1223 10.4992 13.75 10.4597V7.21062C13.75 6.52026 13.1904 5.96062 12.5 5.96062H7.5V3.46057C7.5 2.77022 8.05964 2.21057 8.75 2.21057H18.75C19.4404 2.21057 20 2.77022 20 3.46057V9.28821C20 9.93137 19.4786 10.4528 18.8355 10.4528C18.4411 10.4528 18.0735 10.6523 17.8588 10.9831L17.2984 11.8461C16.8055 12.6051 15.6945 12.6051 15.2016 11.8461Z" fill="#7856FF"></path><path d="M3.33839 16.022L3.87351 16.8461C4.36636 17.6051 5.47739 17.6051 5.97024 16.8461L6.50536 16.022C6.73589 15.667 7.13043 15.4528 7.55373 15.4528H11.25C11.9404 15.4528 12.5 14.8931 12.5 14.2028V8.46057C12.5 7.77022 11.9404 7.21057 11.25 7.21057H1.25C0.559644 7.21057 0 7.77022 0 8.46057V14.2028C0 14.8931 0.559644 15.4528 1.25 15.4528H2.29002C2.71332 15.4528 3.10786 15.667 3.33839 16.022Z" fill="#B094FF"></path><circle cx="9.0625" cy="11.2731" r="0.9375" fill="#7856FF"></circle><circle cx="6.25" cy="11.2731" r="0.9375" fill="#7856FF"></circle><circle cx="3.4375" cy="11.2731" r="0.9375" fill="#7856FF"></circle></svg>