<svg width="16" height="13" viewBox="0 0 16 13" fill="none" xmlns="http://www.w3.org/2000/svg"><rect y="2.15381" width="16" height="10" rx="1" fill="#1B0B3B"></rect><path d="M6.87868 0.878679L8 2L9.12132 0.87868C9.68393 0.316071 10.447 0 11.2426 0H13.5C14.0523 0 14.5 0.447715 14.5 1V9.5C14.5 10.0523 14.0523 10.5 13.5 10.5H11.2426C10.447 10.5 9.68393 10.8161 9.12132 11.3787L8.70711 11.7929C8.31658 12.1834 7.68342 12.1834 7.29289 11.7929L6.87868 11.3787C6.31607 10.8161 5.55301 10.5 4.75736 10.5H2.5C1.94772 10.5 1.5 10.0523 1.5 9.5V1C1.5 0.447715 1.94772 0 2.5 0H4.75736C5.55301 0 6.31607 0.31607 6.87868 0.878679Z" fill="#7856FF"></path><path d="M8 3V10" stroke="#1B0B3B" stroke-linecap="round" stroke-linejoin="round"></path></svg>