<svg width="18" height="16" viewBox="0 0 18 16" fill="none" xmlns="http://www.w3.org/2000/svg"><path d="M11 6.71429H17V13.5714H15.5224C15.005 13.5714 14.5087 13.777 14.1429 14.1429C13.777 14.5087 13.2807 14.7143 12.7633 14.7143H12.2857C11.7334 14.7143 11.2857 14.2666 11.2857 13.7143V12.4286H11C9.89543 12.4286 9 11.5331 9 10.4286V8.71429C9 7.60972 9.89543 6.71429 11 6.71429Z" fill="#7856FF"></path><path d="M17 6.71429H11C9.89543 6.71429 9 7.60972 9 8.71429V10.4286C9 11.5331 9.89543 12.4286 11 12.4286H11.2857V13.7143C11.2857 14.2666 11.7334 14.7143 12.2857 14.7143H12.7633C13.2807 14.7143 13.777 14.5087 14.1429 14.1429V14.1429C14.5087 13.777 15.005 13.5714 15.5224 13.5714H17" stroke="#1B0B3B" stroke-linecap="round" stroke-linejoin="round"></path><path d="M11.2857 10.1429H12.4286C13.0597 10.1429 13.5714 10.6545 13.5714 11.2857V11.2857C13.5714 11.9169 13.0597 12.4286 12.4286 12.4286H11.2857" stroke="#1B0B3B" stroke-linecap="round"></path><path d="M7 6.71429H1V13.5714H2.47759C2.99502 13.5714 3.49126 13.777 3.85714 14.1429C4.22302 14.5087 4.71926 14.7143 5.23669 14.7143H5.71429C6.26657 14.7143 6.71429 14.2666 6.71429 13.7143V12.4286H7C8.10457 12.4286 9 11.5331 9 10.4286V8.71429C9 7.60972 8.10457 6.71429 7 6.71429Z" fill="#7856FF"></path><path d="M1 6.71429H7C8.10457 6.71429 9 7.60972 9 8.71429V10.4286C9 11.5331 8.10457 12.4286 7 12.4286H6.71429V13.7143C6.71429 14.2666 6.26657 14.7143 5.71429 14.7143H5.23669C4.71926 14.7143 4.22302 14.5087 3.85714 14.1429V14.1429C3.49126 13.777 2.99502 13.5714 2.47759 13.5714H1" stroke="#1B0B3B" stroke-linecap="round" stroke-linejoin="round"></path><path d="M6.71429 10.1429H5.57144C4.94025 10.1429 4.42858 10.6545 4.42858 11.2857V11.2857C4.42858 11.9169 4.94025 12.4286 5.57144 12.4286H6.71429" stroke="#1B0B3B" stroke-linecap="round"></path><path d="M8.99997 4.42857V1" stroke="#7856FF" stroke-linecap="round"></path><path d="M11.2857 4.42857L13.5714 2.14285" stroke="#7856FF" stroke-linecap="round"></path><path d="M6.71426 4.42857L4.42855 2.14285" stroke="#7856FF" stroke-linecap="round"></path></svg>