<svg width="16" height="16" viewBox="0 0 16 16" fill="none" xmlns="http://www.w3.org/2000/svg"><g clip-path="url(#clip0_1596_59443)"><rect width="16" height="16" fill="white"></rect><path d="M2 16L14 16C15.1046 16 16 15.1046 16 14L16 2C16 0.895433 15.1046 1.81341e-06 14 1.69753e-06L2 4.38646e-07C0.895429 3.22768e-07 -7.75506e-07 0.895432 -8.58276e-07 2L-1.75748e-06 14C-1.84025e-06 15.1046 0.895428 16 2 16Z" fill="#7856FF"></path><path d="M3 7L6 4L9 7L13 3" stroke="#1B0B3B" stroke-linecap="round" stroke-linejoin="round"></path><path d="M3 11V13" stroke="#1B0B3B" stroke-linecap="round" stroke-linejoin="round"></path><path d="M8 10L8 13" stroke="#1B0B3B" stroke-linecap="round" stroke-linejoin="round"></path><path d="M13 11V13" stroke="#1B0B3B" stroke-linecap="round" stroke-linejoin="round"></path></g><defs><clipPath id="clip0_1596_59443"><rect width="16" height="16" fill="white"></rect></clipPath></defs></svg>