<svg width="16" height="12" viewBox="0 0 16 12" fill="none" xmlns="http://www.w3.org/2000/svg"><circle cx="2.57133" cy="5.83158" r="1.58891" fill="#7856FF"></circle><path fill-rule="evenodd" clip-rule="evenodd" d="M3.50069 8.23982C3.36643 8.48731 3.25441 8.75019 3.16765 9.02625L2.89822 9.88352C2.75248 10.3472 2.76316 10.8136 2.89467 11.234H0.684705C0.210882 11.234 -0.119468 10.7639 0.041025 10.3181L0.274086 9.67073C0.622826 8.70201 1.54177 8.05615 2.57136 8.05615C2.89705 8.05615 3.21168 8.12078 3.50069 8.23982Z" fill="#7856FF"></path><circle cx="1.58891" cy="1.58891" r="1.58891" transform="matrix(-1 0 0 1 15.0176 4.24268)" fill="#7856FF"></circle><path fill-rule="evenodd" clip-rule="evenodd" d="M12.4993 8.23982C12.6336 8.48731 12.7456 8.75019 12.8323 9.02625L13.1018 9.88352C13.2475 10.3472 13.2368 10.8136 13.1053 11.234H15.3153C15.7891 11.234 16.1195 10.7639 15.959 10.3181L15.7259 9.67073C15.3772 8.70201 14.4582 8.05615 13.4286 8.05615C13.1029 8.05615 12.7883 8.12078 12.4993 8.23982Z" fill="#7856FF"></path><circle cx="7.80361" cy="2.55312" r="2.55312" fill="#1B0B3B"></circle><path d="M4.11228 8.72182C4.67265 7.16523 6.14925 6.12744 7.80363 6.12744C9.45802 6.12744 10.9346 7.16523 11.495 8.72182L11.8695 9.76208C12.1274 10.4784 11.5965 11.2337 10.8352 11.2337H4.77208C4.01072 11.2337 3.4799 10.4784 3.73779 9.76208L4.11228 8.72182Z" fill="#1B0B3B"></path></svg>