<svg width="16" height="16" viewBox="0 0 16 16" fill="none" xmlns="http://www.w3.org/2000/svg"><path d="M0 6.33334C0 5.78106 0.447715 5.33334 1 5.33334H9.66667C10.219 5.33334 10.6667 5.78106 10.6667 6.33334V15C10.6667 15.5523 10.219 16 9.66667 16H1C0.447717 16 0 15.5523 0 15V6.33334Z" fill="#7856FF"></path><path d="M5.33333 1C5.33333 0.447717 5.78104 0 6.33333 0H15C15.5523 0 16 0.447715 16 1V9.66667C16 10.219 15.5523 10.6667 15 10.6667H6.33333C5.78104 10.6667 5.33333 10.219 5.33333 9.66667V1Z" fill="#7856FF"></path><path fill-rule="evenodd" clip-rule="evenodd" d="M10.6666 10.6666H6.33329C5.781 10.6666 5.33329 10.2189 5.33329 9.66664V5.3333H9.66662C10.2189 5.3333 10.6666 5.78102 10.6666 6.3333V10.6666Z" fill="#1B0B3B"></path></svg>